<svg width="730" height="747" viewBox="0 0 730 747" fill="none" xmlns="http://www.w3.org/2000/svg">
<g filter="url(#filter0_d_489_3380)">
<path fill-rule="evenodd" clip-rule="evenodd" d="M278.367 66.8719C213.73 89.7053 161.391 130.536 137.579 176.712C127.683 195.893 126.137 204.005 126.036 237.34C125.925 273.907 126.798 277.636 143.544 312.254C164.302 355.158 175.29 367.477 185.322 359.075C200.441 346.41 200.403 339.538 185.059 313.819C147.856 251.463 154.016 198.335 203.618 153.707C233.234 127.068 267.895 108.729 308.428 98.2657C345.266 88.756 369.12 87.7811 405.734 94.2848C455.735 103.17 495.857 123.592 533.042 159.091C581.751 205.587 584.678 255.957 542.358 319.352C535.796 329.182 530.424 338.948 530.424 341.056C530.424 348.18 550.919 364.411 555.952 361.273C558.685 359.567 568.131 346.914 576.943 333.154C609.761 281.903 615.959 214.451 591.702 172.453C567.763 130.993 515.5 90.2612 460.297 70.0361C435.143 60.8215 418.318 55.6345 363.961 56.0201C317.167 56.3579 289.915 62.7927 278.367 66.8719ZM349.113 129.159C346.317 131.981 344.029 140.572 344.029 148.251C344.029 173.192 374.886 179.636 385.633 156.94C390.514 146.626 390.357 143.492 384.515 134.491C377.097 123.062 358 120.188 349.113 129.159ZM199.306 176.408C189.27 184.605 178.815 202.029 178.815 210.555C178.815 217.696 179.849 217.777 194.159 211.74C215.628 202.688 254.792 203.573 281.231 213.715C302.391 221.831 304.043 221.874 323.657 214.844C334.883 210.816 343.495 205.796 342.796 203.68C342.102 201.567 332.083 195.996 320.539 191.305C275.626 173.043 212.87 165.329 199.306 176.408ZM456.29 177.246C426.187 183.574 389.501 197.997 387.408 204.33C386.591 206.801 390.319 210.068 395.69 211.59C401.062 213.112 409.539 216.379 414.533 218.846C421.51 222.293 429.148 221.241 447.525 214.301C475.446 203.757 509.315 202.658 534.127 211.496C543.739 214.917 551.606 216.007 551.606 213.912C551.606 205.544 542.993 188.026 534.83 179.786C524.684 169.545 497.157 168.651 456.29 177.246ZM86.3799 240.936C47.525 324.367 45.8855 413.122 81.7793 489.807C88.8878 504.99 96.4368 517.412 98.5507 517.412C110.285 517.412 111.615 462.321 100.775 425.48C91.4931 393.962 93.3867 334.168 104.723 300.525C110.819 282.434 111.531 273.155 108.464 251.681C106.384 237.1 102.545 224.465 99.9317 223.601C97.3222 222.737 91.222 230.537 86.3799 240.936ZM335.557 228.288C300.62 236.078 282.862 246.43 258.071 273.463C231.408 302.53 221.093 330.067 221.364 371.454C221.576 403.934 227.905 424.847 245.112 449.951C306.835 539.989 445.021 531.501 495.674 434.558C505.913 414.961 507.112 408.15 507.074 369.893C507.036 334.142 505.456 323.931 497.441 307.606C477.797 267.579 442.382 239.281 399.1 229.027C367.121 221.446 366.265 221.438 335.557 228.288ZM624.351 244.079C618.467 269.802 617.996 287.535 623.046 293.14C638.216 309.979 640.919 399.273 627.503 440.522C619.483 465.173 619.174 469.958 624.139 492.539C627.147 506.222 631.069 517.412 632.861 517.412C640.156 517.412 658.512 474.683 668.671 434.032C677.901 397.109 674.728 323.226 662.341 286.513C651.662 254.867 636.369 222.374 632.158 222.374C630.591 222.374 627.079 232.14 624.351 244.079ZM395.877 266.724C421.642 274.549 443.632 292.131 457.561 316.042C467.436 333 468.99 340.364 468.939 369.893C468.876 407.79 464.144 420.276 440.768 444.251C409.276 476.547 355.844 484.534 316.659 462.796C233.967 416.915 244.117 297.908 333.438 266.061C351.383 259.664 373.416 259.899 395.877 266.724ZM336.006 331.683C291.203 369.735 334.73 438.124 387.624 412.789C403.116 405.37 416.045 384.983 416.045 367.965C416.045 329.319 365.676 306.485 336.006 331.683ZM157.718 401.83C134.906 437.709 126.718 464.271 126.696 502.446C126.671 549.037 139.278 577.061 177.116 614.505C198.272 635.444 215.069 647.074 245.883 662.121L276.256 676.631C281.376 679.078 286.729 681.005 292.234 682.385L309.549 686.724L341.54 691C433.248 691 444.039 683.138 495.827 657.217C532.856 638.681 576.316 597.461 591.219 566.739C612.218 523.45 610.134 464.297 586.161 423.342C571.368 398.071 558.655 380.583 555.079 380.583C552.966 380.583 546.408 385.102 540.507 390.623L529.781 400.667L546.806 427.259C576.922 474.285 579.031 514.462 553.69 558.371C523.621 610.473 439.142 653.668 366.477 654.087C329.007 654.305 300.277 647.31 261.062 628.419C192.485 595.383 158.811 548.682 162.832 492.184C164.818 464.215 175.1 437.256 192.219 415.141C200.166 404.87 200.14 404.72 188.724 392.692C182.403 386.03 175.879 380.583 174.227 380.583C172.575 380.583 165.149 390.144 157.718 401.83ZM282.603 530.432C255.69 540.181 221.983 540.758 199.907 531.843C190.444 528.02 181.662 525.938 180.395 527.221C177.557 530.086 190.96 559.316 196.777 562.942C216.615 575.321 276.55 570.69 318.264 553.56C345.673 542.306 349.854 535.478 331.596 531.792C324.356 530.329 317.408 527.46 316.155 525.412C313.143 520.491 307.86 521.277 282.603 530.432ZM404.358 529.568C394.432 533.335 386.892 538.171 387.603 540.322C389.675 546.591 428.301 560.436 461.933 566.961C499.673 574.286 524.439 571.066 537.19 557.182C545.87 547.728 554.02 526.977 550.462 523.385C549.61 522.522 541.49 525.634 532.415 530.304C522.579 535.366 507.506 538.791 495.073 538.791C473.887 538.791 442.637 531.706 435.32 525.241C430.165 520.692 426.327 521.226 404.358 529.568ZM349.113 578.13C342.076 585.232 342.733 609.348 350.129 615.544C360.097 623.895 379.054 619.187 386.006 606.629C391.59 596.537 391.484 594.199 384.981 584.18C377.11 572.058 358.276 568.881 349.113 578.13Z" fill="#B8E930"/>
</g>
<defs>
<filter id="filter0_d_489_3380" x="0.0999985" y="0.0999985" width="729.8" height="746.8" filterUnits="userSpaceOnUse" color-interpolation-filters="sRGB">
<feFlood flood-opacity="0" result="BackgroundImageFix"/>
<feColorMatrix in="SourceAlpha" type="matrix" values="0 0 0 0 0 0 0 0 0 0 0 0 0 0 0 0 0 0 127 0" result="hardAlpha"/>
<feOffset/>
<feGaussianBlur stdDeviation="27.95"/>
<feComposite in2="hardAlpha" operator="out"/>
<feColorMatrix type="matrix" values="0 0 0 0 0.721569 0 0 0 0 0.913725 0 0 0 0 0.188235 0 0 0 1 0"/>
<feBlend mode="normal" in2="BackgroundImageFix" result="effect1_dropShadow_489_3380"/>
<feBlend mode="normal" in="SourceGraphic" in2="effect1_dropShadow_489_3380" result="shape"/>
</filter>
</defs>
</svg>
