<svg width="495" height="42" viewBox="0 0 495 42" fill="none" xmlns="http://www.w3.org/2000/svg">
<mask id="mask0_579_1407" style="mask-type:alpha" maskUnits="userSpaceOnUse" x="0" y="0" width="495" height="42">
<rect width="495" height="42" fill="#D9D9D9"/>
</mask>
<g mask="url(#mask0_579_1407)">
<path d="M0.0341797 -3H9.03418L-29.4658 53H-38.4658L0.0341797 -3Z" fill="#601FEB"/>
<path d="M27.5342 -3H36.5342L-1.96582 53H-10.9658L27.5342 -3Z" fill="#601FEB"/>
<path d="M55.0342 -3H64.0342L25.5342 53H16.5342L55.0342 -3Z" fill="#601FEB"/>
<path d="M82.5342 -3H91.5342L53.0342 53H44.0342L82.5342 -3Z" fill="#601FEB"/>
<path d="M110.034 -3H119.034L80.5342 53H71.5342L110.034 -3Z" fill="#601FEB"/>
<path d="M137.534 -3H146.534L108.034 53H99.0342L137.534 -3Z" fill="#601FEB"/>
<path d="M165.034 -3H174.034L135.534 53H126.534L165.034 -3Z" fill="#601FEB"/>
<path d="M192.534 -3H201.534L163.034 53H154.034L192.534 -3Z" fill="#601FEB"/>
<path d="M220.034 -3H229.034L190.534 53H181.534L220.034 -3Z" fill="#601FEB"/>
<path d="M247.534 -3H256.534L218.034 53H209.034L247.534 -3Z" fill="#601FEB"/>
<path d="M275.034 -3H284.034L245.534 53H236.534L275.034 -3Z" fill="#601FEB"/>
<path d="M302.534 -3H311.534L273.034 53H264.034L302.534 -3Z" fill="#601FEB"/>
<path d="M330.034 -3H339.034L300.534 53H291.534L330.034 -3Z" fill="#601FEB"/>
<path d="M357.534 -3H366.534L328.034 53H319.034L357.534 -3Z" fill="#601FEB"/>
<path d="M385.034 -3H394.034L355.534 53H346.534L385.034 -3Z" fill="#601FEB"/>
<path d="M412.534 -3H421.534L383.034 53H374.034L412.534 -3Z" fill="#601FEB"/>
<path d="M440.034 -3H449.034L410.534 53H401.534L440.034 -3Z" fill="#601FEB"/>
<path d="M467.534 -3H476.534L438.034 53H429.034L467.534 -3Z" fill="#601FEB"/>
<path d="M495.034 -3H504.034L465.534 53H456.534L495.034 -3Z" fill="#601FEB"/>
<path d="M522.534 -3H531.534L493.034 53H484.034L522.534 -3Z" fill="#601FEB"/>
</g>
</svg>
