<svg width="39" height="41" viewBox="0 0 39 41" fill="none" xmlns="http://www.w3.org/2000/svg">
<path fill-rule="evenodd" clip-rule="evenodd" d="M14.0329 1.18485C9.95385 2.62317 6.65091 5.19518 5.14821 8.10388C4.52371 9.31218 4.42613 9.82313 4.41972 11.923C4.41277 14.2264 4.46784 14.4613 5.52462 16.642C6.83457 19.3446 7.52804 20.1206 8.16109 19.5913C9.11522 18.7935 9.11281 18.3607 8.14452 16.7405C5.79677 12.8126 6.18548 9.46597 9.31572 6.65478C11.1847 4.97674 13.372 3.8215 15.9299 3.1624C18.2547 2.56337 19.76 2.50196 22.0706 2.91164C25.226 3.47135 27.7579 4.75776 30.1046 6.99389C33.1785 9.92279 33.3632 13.0957 30.6925 17.0891C30.2784 17.7083 29.9394 18.3235 29.9394 18.4563C29.9394 18.905 31.2328 19.9275 31.5504 19.7298C31.7228 19.6223 32.319 18.8253 32.875 17.9585C34.9461 14.7301 35.3372 10.4811 33.8064 7.83561C32.2957 5.224 28.9976 2.65818 25.5139 1.38416C23.9265 0.803717 22.8648 0.476979 19.4344 0.501264C16.4814 0.522543 14.7616 0.927887 14.0329 1.18485ZM18.4974 5.10845C18.321 5.28622 18.1766 5.82734 18.1766 6.31109C18.1766 7.8822 20.1239 8.28811 20.8021 6.85841C21.1101 6.20874 21.1002 6.01131 20.7315 5.44433C20.2634 4.72436 19.0583 4.54336 18.4974 5.10845ZM9.04357 8.08475C8.41025 8.6011 7.75046 9.69869 7.75046 10.2358C7.75046 10.6856 7.81569 10.6907 8.71876 10.3104C10.0736 9.74017 12.5451 9.79593 14.2136 10.4348C15.5489 10.946 15.6532 10.9487 16.891 10.5059C17.5994 10.2522 18.1429 9.93599 18.0988 9.80266C18.055 9.6696 17.4227 9.31864 16.6942 9.02316C13.8599 7.87278 9.89958 7.38687 9.04357 8.08475ZM25.261 8.13755C23.3613 8.53618 21.0462 9.4447 20.9141 9.8436C20.8625 9.99929 21.0978 10.2051 21.4368 10.301C21.7757 10.3968 22.3107 10.6026 22.6259 10.758C23.0662 10.9751 23.5482 10.9089 24.7079 10.4717C26.4699 9.80751 28.6073 9.73829 30.1731 10.295C30.7796 10.5105 31.2761 10.5792 31.2761 10.4472C31.2761 9.9201 30.7326 8.81657 30.2174 8.29754C29.5772 7.65245 27.84 7.59615 25.261 8.13755ZM1.91718 12.1495C-0.534833 17.405 -0.638292 22.9959 1.62685 27.8264C2.07544 28.7829 2.55184 29.5653 2.68524 29.5653C3.42576 29.5653 3.5097 26.095 2.82559 23.7743C2.23985 21.789 2.35935 18.0224 3.07475 15.9031C3.45944 14.7635 3.50436 14.179 3.3108 12.8264C3.17954 11.9079 2.93734 11.112 2.77239 11.0576C2.60771 11.0031 2.22274 11.4944 1.91718 12.1495ZM17.6419 11.3528C15.4372 11.8435 14.3165 12.4956 12.7521 14.1984C11.0694 16.0295 10.4185 17.7641 10.4356 20.3711C10.449 22.4171 10.8484 23.7345 11.9343 25.3158C15.8294 30.9875 24.5499 30.4528 27.7464 24.3461C28.3926 23.1117 28.4683 22.6827 28.4658 20.2728C28.4634 18.0208 28.3637 17.3776 27.8579 16.3492C26.6183 13.8278 24.3833 12.0453 21.652 11.3994C19.6338 10.9218 19.5798 10.9213 17.6419 11.3528ZM35.8668 12.3475C35.4955 13.9679 35.4658 15.0849 35.7845 15.438C36.7418 16.4987 36.9123 22.1235 36.0657 24.7219C35.5596 26.2747 35.5401 26.5761 35.8534 27.9985C36.0432 28.8604 36.2908 29.5653 36.4039 29.5653C36.8642 29.5653 38.0226 26.8737 38.6637 24.313C39.2462 21.9872 39.046 17.3331 38.2643 15.0205C37.5903 13.027 36.6252 10.9803 36.3595 10.9803C36.2606 10.9803 36.039 11.5954 35.8668 12.3475ZM21.4485 13.7739C23.0745 14.2668 24.4622 15.3744 25.3412 16.8806C25.9644 17.9488 26.0625 18.4127 26.0593 20.2728C26.0553 22.66 25.7567 23.4465 24.2815 24.9568C22.2941 26.9912 18.9222 27.4943 16.4493 26.1249C11.2309 23.2348 11.8715 15.7383 17.5083 13.7322C18.6407 13.3292 20.0311 13.3441 21.4485 13.7739ZM17.6703 17.8659C14.8429 20.2628 17.5898 24.5708 20.9278 22.9749C21.9054 22.5076 22.7213 21.2233 22.7213 20.1513C22.7213 17.7169 19.5427 16.2786 17.6703 17.8659ZM6.41913 22.2846C4.97952 24.5447 4.46276 26.2179 4.46142 28.6226C4.45982 31.5574 5.25541 33.3227 7.64326 35.6814C8.97834 37.0004 10.0383 37.733 11.9829 38.6809L12.8828 39.11C13.8822 39.5866 14.9266 39.962 16.0007 40.2307L18.0195 40.5C23.8069 40.5 24.4879 40.0047 27.7561 38.3719C30.0929 37.2043 32.8355 34.6078 33.776 32.6725C35.1011 29.9456 34.9696 26.2195 33.4568 23.6396C32.5232 22.0478 31.7209 20.9462 31.4953 20.9462C31.3619 20.9462 30.9481 21.2309 30.5757 21.5786L29.8988 22.2113L30.9732 23.8864C32.8737 26.8487 33.0068 29.3795 31.4076 32.1454C29.5101 35.4274 24.1788 38.1484 19.5932 38.1748C17.2286 38.1885 15.4155 37.7479 12.9408 36.5579C8.61316 34.4769 6.4881 31.5351 6.7418 27.9762C6.86718 26.2144 7.51601 24.5161 8.59632 23.123C9.09784 22.4761 9.09624 22.4666 8.37576 21.709C7.9769 21.2893 7.5652 20.9462 7.46094 20.9462C7.35668 20.9462 6.88804 21.5484 6.41913 22.2846ZM14.3002 30.3855C12.6018 30.9996 10.4746 31.036 9.08153 30.4744C8.4843 30.2336 7.93011 30.1024 7.85018 30.1832C7.67107 30.3637 8.51692 32.2049 8.88397 32.4333C10.1359 33.2131 13.9182 32.9214 16.5507 31.8424C18.2803 31.1335 18.5442 30.7033 17.392 30.4711C16.9351 30.379 16.4966 30.1983 16.4175 30.0693C16.2274 29.7593 15.8941 29.8088 14.3002 30.3855ZM21.9837 30.3311C21.3574 30.5684 20.8815 30.873 20.9264 31.0085C21.0571 31.4034 23.4947 32.2755 25.6171 32.6865C27.9988 33.1479 29.5617 32.9451 30.3663 32.0705C30.9141 31.475 31.4285 30.1679 31.2039 29.9416C31.1502 29.8872 30.6377 30.0833 30.0651 30.3774C29.4443 30.6963 28.4931 30.9121 27.7085 30.9121C26.3715 30.9121 24.3994 30.4658 23.9377 30.0585C23.6124 29.7719 23.3701 29.8056 21.9837 30.3311ZM18.4974 33.3901C18.0534 33.8375 18.0948 35.3566 18.5616 35.7469C19.1906 36.2729 20.3869 35.9763 20.8256 35.1853C21.178 34.5496 21.1713 34.4023 20.7609 33.7712C20.2642 33.0076 19.0756 32.8075 18.4974 33.3901Z" fill="#B8E930"/>
</svg>
